<?xml version="1.0" standalone="no"?>
<!DOCTYPE svg PUBLIC "-//W3C//DTD SVG 1.1//EN" "http://www.w3.org/Graphics/SVG/1.1/DTD/svg11.dtd">
<svg width="163mm" height="135mm" viewBox="-64 -50 163 135" xmlns="http://www.w3.org/2000/svg" version="1.1">
<title>OpenSCAD Model</title>
<path d="
M 41.6419,72.2491 L 45.2537,73.9309 L 46.1545,74.351 L 53.5389,77.7964 L 53.5717,77.8109 L 53.6139,77.8311
 L 56.1679,78.9451 L 58.3559,79.8991 L 62.5679,83.4351 L 63.7399,84.4191 L 63.7539,84.4291 L 66.6559,83.8731
 L 69.2044,83.3829 L 72.7173,83.0066 L 77.3047,82.5126 L 77.3582,82.4518 L 88.6784,69.9133 L 97.2214,60.4573
 L 97.288,60.381 L 97.2889,60.3447 L 97.9539,53.0151 L 98.4339,47.7091 L 97.6679,46.7731 L 96.6059,45.4771
 L 94.8353,43.9931 L 93.4329,42.8171 L 88.8819,38.9971 L 89.2692,35.3416 L 89.5535,32.6642 L 89.6039,32.1891
 L 90.3179,26.2211 L 91.6799,14.8011 L 91.9082,10.9181 L 92.0179,9.05113 L 92.0179,-9.04886 L 91.8903,-11.2223
 L 91.6799,-14.8009 L 90.3179,-26.2169 L 89.6039,-32.1869 L 80.1039,-42.6869 L 78.4459,-43.5509 L 73.3379,-46.2109
 L 36.2479,-46.2109 L 35.8334,-46.5467 L 34.1741,-47.8903 L 32.7699,-49.0289 L 15.4139,-49.0289 L 14.0879,-48.3349
 L 10.0319,-46.2109 L -7.61208,-46.2109 L -8.46286,-45.2894 L -11.3087,-42.2189 L -13.1701,-40.2089 L -53.6641,-40.2089
 L -60.0332,-33.3569 L -62.7248,-30.4617 L -63.0921,-30.0669 L -63.0962,-30.0196 L -63.1283,-29.6817 L -63.2161,-28.7469
 L -63.2161,-28.6827 L -63.1322,-16.1501 L -63.1161,-13.7489 L -63.0981,-11.3609 L -63.0941,-10.1488 L -63.0701,-2.95085
 L -63.0701,14.9511 L -63.0981,23.3611 L -63.1161,25.7491 L -63.1322,28.1504 L -63.2161,40.683 L -63.2161,40.7491
 L -63.1283,41.684 L -63.0962,42.0213 L -63.0921,42.0691 L -62.7507,42.4362 L -60.0332,45.3592 L -53.6641,52.2111
 L -13.0721,52.2111 L -11.0734,50.0523 L -11.0717,50.0523 L -7.51207,46.2111 L 9.87791,46.2111 L 14.7611,54.0148
 L 23.3759,67.7811 L 23.6834,68.1999 L 23.732,68.2665 L 24.4239,69.2191 L 24.4877,69.2288 L 24.491,69.2294
 L 24.5199,69.2351 L 30.4421,70.279 L 31.3222,70.4342 L 41.5833,72.2438 L 41.6399,72.2551 z
M 1.60992,40.8951 L 1.52992,40.8891 L 1.45192,40.8831 L 1.37592,40.8711 L 1.29791,40.8531 L 1.22192,40.8311
 L 1.14792,40.8051 L 1.07591,40.7751 L 1.00592,40.7391 L 0.937912,40.6991 L 0.873917,40.6531 L 0.81192,40.6071
 L 0.751907,40.5551 L 0.697922,40.4991 L 0.663986,40.4622 L 0.650345,40.4465 L 0.64592,40.4391 L 0.595917,40.3771
 L 0.553925,40.3131 L 0.513916,40.2451 L 0.477921,40.1751 L 0.447922,40.1051 L 0.419922,40.0291 L 0.397919,39.9551
 L 0.379913,39.8771 L 0.359924,39.7211 L 0.35791,39.6431 L 0.359924,39.5651 L 0.369919,39.4851 L 0.379913,39.4091
 L 0.397919,39.3311 L 0.419922,39.2571 L 0.447922,39.1831 L 0.477921,39.1111 L 0.513916,39.0411 L 0.553925,38.9731
 L 0.595917,38.9071 L 0.64592,38.8471 L 0.697922,38.7871 L 0.751907,38.7331 L 0.81192,38.6811 L 0.873917,38.6331
 L 0.937912,38.5871 L 1.00592,38.5491 L 1.07591,38.5111 L 1.14792,38.4811 L 1.22192,38.4551 L 1.29791,38.4311
 L 1.37592,38.4151 L 1.45192,38.4031 L 1.52992,38.3951 L 1.60992,38.3931 L 1.68791,38.3951 L 1.76591,38.4031
 L 1.84192,38.4151 L 1.91792,38.4311 L 1.99391,38.4551 L 2.06792,38.4811 L 2.14192,38.5111 L 2.27792,38.5871
 L 2.34192,38.6331 L 2.40591,38.6811 L 2.46391,38.7331 L 2.51991,38.7871 L 2.57191,38.8471 L 2.61992,38.9071
 L 2.66391,38.9731 L 2.70392,39.0411 L 2.73792,39.1111 L 2.77193,39.1831 L 2.79791,39.2571 L 2.81792,39.3311
 L 2.83592,39.4091 L 2.84991,39.4851 L 2.85593,39.5651 L 2.85791,39.6431 L 2.85593,39.7211 L 2.84991,39.7991
 L 2.83592,39.8771 L 2.81792,39.9551 L 2.79791,40.0291 L 2.77193,40.1051 L 2.70392,40.2451 L 2.66391,40.3131
 L 2.61992,40.3771 L 2.57191,40.4391 L 2.56592,40.4466 L 2.53355,40.4834 L 2.51991,40.4991 L 2.46391,40.5551
 L 2.40591,40.6071 L 2.27792,40.6991 L 2.20992,40.7391 L 2.14192,40.7751 L 2.06792,40.8051 L 1.99391,40.8311
 L 1.91792,40.8531 L 1.84192,40.8711 L 1.76591,40.8831 z
M 0.321915,-40.4429 L 0.323914,-40.4449 L 0.32991,-40.5228 L 0.343918,-40.5989 L 0.35791,-40.6769 L 0.381912,-40.7529
 L 0.407913,-40.8269 L 0.437912,-40.8969 L 0.513916,-41.0368 L 0.559921,-41.1008 L 0.60791,-41.1609 L 0.659912,-41.2229
 L 0.715912,-41.2769 L 0.773911,-41.3289 L 0.833908,-41.3789 L 0.899918,-41.4209 L 0.967926,-41.4609 L 1.03792,-41.4969
 L 1.10992,-41.5269 L 1.18192,-41.5549 L 1.25792,-41.5769 L 1.33591,-41.5949 L 1.49191,-41.6149 L 1.56992,-41.6169
 L 1.64792,-41.6149 L 1.80392,-41.5949 L 1.88191,-41.5769 L 1.95592,-41.5549 L 2.03192,-41.5269 L 2.10191,-41.4969
 L 2.17192,-41.4609 L 2.23991,-41.4209 L 2.30392,-41.3789 L 2.36592,-41.3289 L 2.42592,-41.2769 L 2.48192,-41.2229
 L 2.53391,-41.1609 L 2.57991,-41.1008 L 2.62592,-41.0368 L 2.66592,-40.9669 L 2.70192,-40.8969 L 2.73192,-40.8269
 L 2.75792,-40.7529 L 2.77992,-40.6769 L 2.79791,-40.5989 L 2.80992,-40.5228 L 2.81435,-40.4653 L 2.81592,-40.4443
 L 2.81592,-40.4429 L 2.82191,-40.3649 L 2.80992,-40.2089 L 2.79791,-40.1309 L 2.77992,-40.0549 L 2.75792,-39.9809
 L 2.73192,-39.9069 L 2.70192,-39.8329 L 2.66592,-39.7629 L 2.62592,-39.6969 L 2.57991,-39.6309 L 2.53391,-39.5689
 L 2.48192,-39.5109 L 2.42592,-39.4549 L 2.36592,-39.4029 L 2.30392,-39.3549 L 2.23991,-39.3089 L 2.17192,-39.2709
 L 2.10191,-39.2349 L 2.03192,-39.2029 L 1.95592,-39.1769 L 1.88191,-39.1549 L 1.80392,-39.1389 L 1.72592,-39.1249
 L 1.64792,-39.1189 L 1.56992,-39.1169 L 1.49191,-39.1189 L 1.41393,-39.1249 L 1.33591,-39.1389 L 1.25792,-39.1549
 L 1.18192,-39.1769 L 1.10992,-39.2029 L 1.03792,-39.2349 L 0.967926,-39.2709 L 0.899918,-39.3089 L 0.833908,-39.3549
 L 0.773911,-39.4029 L 0.715912,-39.4549 L 0.659912,-39.5109 L 0.60791,-39.5689 L 0.559921,-39.6309 L 0.513916,-39.6969
 L 0.475922,-39.7629 L 0.437912,-39.8329 L 0.407913,-39.9069 L 0.381912,-39.9809 L 0.35791,-40.0549 L 0.343918,-40.1309
 L 0.32991,-40.2089 L 0.321915,-40.2868 L 0.319916,-40.3649 z
M 84.8439,-23.5209 L 84.8519,-23.6009 L 84.8639,-23.6768 L 84.8819,-23.7549 L 84.9019,-23.8309 L 84.9279,-23.9049
 L 84.9619,-23.9749 L 84.9959,-24.0469 L 85.0799,-24.1789 L 85.1279,-24.2389 L 85.1799,-24.3009 L 85.2359,-24.3549
 L 85.2939,-24.4069 L 85.3579,-24.4548 L 85.4219,-24.4989 L 85.4899,-24.5388 L 85.5579,-24.5749 L 85.6319,-24.6048
 L 85.7059,-24.6328 L 85.7819,-24.6549 L 85.8579,-24.6729 L 85.8899,-24.6768 L 85.9359,-24.6828 L 86.0139,-24.6909
 L 86.0899,-24.6929 L 86.1719,-24.6909 L 86.2479,-24.6828 L 86.3259,-24.6729 L 86.4019,-24.6549 L 86.4779,-24.6328
 L 86.5519,-24.6048 L 86.6239,-24.5749 L 86.6939,-24.5388 L 86.7619,-24.4989 L 86.8259,-24.4548 L 86.8899,-24.4069
 L 86.9479,-24.3549 L 87.0019,-24.3009 L 87.0539,-24.2389 L 87.1039,-24.1789 L 87.1479,-24.1129 L 87.1879,-24.0469
 L 87.2219,-23.9749 L 87.2539,-23.9049 L 87.2819,-23.8309 L 87.3019,-23.7549 L 87.3199,-23.6768 L 87.3299,-23.6009
 L 87.3399,-23.5209 L 87.3419,-23.4429 L 87.3399,-23.3649 L 87.3199,-23.2088 L 87.3019,-23.1329 L 87.2819,-23.0569
 L 87.2539,-22.9848 L 87.2219,-22.9109 L 87.1879,-22.8409 L 87.1479,-22.7749 L 87.1039,-22.7089 L 87.0539,-22.6469
 L 87.0019,-22.5889 L 86.9479,-22.5329 L 86.8899,-22.4809 L 86.8259,-22.4329 L 86.7619,-22.3889 L 86.6939,-22.3489
 L 86.6239,-22.3129 L 86.5519,-22.2809 L 86.4779,-22.2549 L 86.4019,-22.2328 L 86.3259,-22.2168 L 86.2479,-22.2029
 L 86.2006,-22.1984 L 86.1808,-22.1969 L 86.1719,-22.1969 L 86.0899,-22.1949 L 86.0139,-22.1969 L 85.9359,-22.2029
 L 85.8579,-22.2168 L 85.7819,-22.2328 L 85.7059,-22.2549 L 85.6319,-22.2809 L 85.5579,-22.3129 L 85.4899,-22.3489
 L 85.4219,-22.3889 L 85.3579,-22.4329 L 85.2939,-22.4809 L 85.2359,-22.5329 L 85.1799,-22.5889 L 85.1279,-22.6469
 L 85.0799,-22.7089 L 84.9959,-22.8409 L 84.9619,-22.9109 L 84.9279,-22.9848 L 84.9019,-23.0569 L 84.8819,-23.1329
 L 84.8639,-23.2088 L 84.8519,-23.2868 L 84.8439,-23.3649 L 84.8419,-23.4429 z
M -56.9041,-22.3809 L -56.8361,-22.4209 L -56.7661,-22.4568 L -56.6941,-22.4888 L -56.6221,-22.5149 L -56.5461,-22.5368
 L -56.4681,-22.5529 L -56.3921,-22.5669 L -56.3121,-22.5729 L -56.2341,-22.5749 L -56.1561,-22.5729 L -56.0781,-22.5669
 L -56.0001,-22.5529 L -55.9221,-22.5368 L -55.8481,-22.5149 L -55.7721,-22.4888 L -55.7021,-22.4568 L -55.6321,-22.4209
 L -55.5661,-22.3809 L -55.5001,-22.3369 L -55.4381,-22.2889 L -55.3801,-22.2369 L -55.3221,-22.1809 L -55.2701,-22.1228
 L -55.2241,-22.0609 L -55.1781,-21.9949 L -55.1381,-21.9288 L -55.1021,-21.8589 L -55.0721,-21.7849 L -55.0461,-21.7109
 L -55.0241,-21.6369 L -55.0061,-21.5609 L -54.9941,-21.4828 L -54.9881,-21.4049 L -54.9841,-21.3269 L -54.9881,-21.2469
 L -54.9941,-21.1689 L -55.0061,-21.0909 L -55.0241,-21.0148 L -55.0461,-20.9389 L -55.0721,-20.8649 L -55.1021,-20.7949
 L -55.1381,-20.7229 L -55.1781,-20.6549 L -55.2241,-20.5909 L -55.2701,-20.5289 L -55.3221,-20.4688 L -55.3801,-20.4149
 L -55.4381,-20.3629 L -55.5001,-20.3129 L -55.6321,-20.2289 L -55.7021,-20.1949 L -55.7721,-20.1649 L -55.8481,-20.1369
 L -55.9221,-20.1149 L -56.0001,-20.0969 L -56.0781,-20.0869 L -56.1561,-20.0789 L -56.2341,-20.0749 L -56.3121,-20.0789
 L -56.3921,-20.0869 L -56.4681,-20.0969 L -56.5461,-20.1149 L -56.6221,-20.1369 L -56.6941,-20.1649 L -56.7661,-20.1949
 L -56.8361,-20.2289 L -56.9041,-20.2709 L -56.9701,-20.3129 L -57.0301,-20.3629 L -57.0901,-20.4149 L -57.1441,-20.4688
 L -57.1961,-20.5289 L -57.2441,-20.5909 L -57.2901,-20.6549 L -57.3281,-20.7229 L -57.3661,-20.7949 L -57.3961,-20.8649
 L -57.4221,-20.9389 L -57.4461,-21.0148 L -57.4621,-21.0909 L -57.4741,-21.1689 L -57.4821,-21.2469 L -57.4841,-21.3269
 L -57.4821,-21.4049 L -57.4741,-21.4828 L -57.4621,-21.5609 L -57.4461,-21.6369 L -57.4221,-21.7109 L -57.3961,-21.7849
 L -57.3661,-21.8589 L -57.3281,-21.9288 L -57.2901,-21.9949 L -57.2441,-22.0609 L -57.1961,-22.1228 L -57.1441,-22.1809
 L -57.0901,-22.2369 L -57.0301,-22.2889 L -56.9701,-22.3369 z
M 85.5579,22.3151 L 85.6319,22.2831 L 85.7059,22.2551 L 85.7819,22.2351 L 85.8579,22.2171 L 86.0139,22.1971
 L 86.0899,22.1951 L 86.1719,22.1971 L 86.1839,22.1991 L 86.2479,22.2071 L 86.3259,22.2171 L 86.4019,22.2351
 L 86.4779,22.2551 L 86.5519,22.2831 L 86.6239,22.3151 L 86.6939,22.3491 L 86.7619,22.3891 L 86.8259,22.4331
 L 86.8899,22.4831 L 86.9479,22.5351 L 87.0019,22.5891 L 87.0539,22.6471 L 87.1039,22.7111 L 87.1479,22.7751
 L 87.1879,22.8431 L 87.2219,22.9131 L 87.2539,22.9851 L 87.2819,23.0591 L 87.3019,23.1351 L 87.3199,23.2111
 L 87.3299,23.2891 L 87.3399,23.3651 L 87.3419,23.4451 L 87.3399,23.5231 L 87.3199,23.6791 L 87.3019,23.7551
 L 87.2819,23.8311 L 87.2539,23.9051 L 87.2219,23.9791 L 87.1879,24.0471 L 87.1479,24.1151 L 87.1039,24.1791
 L 87.0539,24.2431 L 87.0019,24.3011 L 86.9479,24.3571 L 86.8899,24.4091 L 86.8259,24.4571 L 86.7619,24.4991
 L 86.6939,24.5411 L 86.6239,24.5751 L 86.5519,24.6091 L 86.4779,24.6351 L 86.4019,24.6551 L 86.3259,24.6731
 L 86.2479,24.6851 L 86.1719,24.6931 L 86.0899,24.6951 L 86.0139,24.6931 L 85.9359,24.6851 L 85.8899,24.6771
 L 85.8579,24.6731 L 85.7819,24.6551 L 85.7059,24.6351 L 85.6319,24.6091 L 85.5579,24.5751 L 85.4899,24.5411
 L 85.4219,24.4991 L 85.3579,24.4571 L 85.2939,24.4091 L 85.2359,24.3571 L 85.1799,24.3011 L 85.1279,24.2431
 L 85.0799,24.1791 L 85.0379,24.1151 L 84.9959,24.0471 L 84.9619,23.9791 L 84.9279,23.9051 L 84.9019,23.8311
 L 84.8819,23.7551 L 84.8639,23.6791 L 84.8519,23.6011 L 84.8439,23.5231 L 84.8419,23.4451 L 84.8439,23.3651
 L 84.8519,23.2891 L 84.8639,23.2111 L 84.8819,23.1351 L 84.9019,23.0591 L 84.9279,22.9851 L 84.9619,22.9131
 L 84.9959,22.8431 L 85.0379,22.7751 L 85.0799,22.7111 L 85.1279,22.6471 L 85.1799,22.5891 L 85.2359,22.5351
 L 85.2939,22.4831 L 85.3579,22.4331 L 85.4219,22.3891 L 85.4899,22.3491 z
M -57.4461,33.6391 L -57.4621,33.5631 L -57.4741,33.4851 L -57.4821,33.4071 L -57.4841,33.3271 L -57.4821,33.2491
 L -57.4741,33.1711 L -57.4621,33.0931 L -57.4461,33.0171 L -57.4221,32.9411 L -57.3961,32.8671 L -57.3661,32.7951
 L -57.3281,32.7251 L -57.2901,32.6591 L -57.2441,32.5931 L -57.1961,32.5311 L -57.1441,32.4711 L -57.0901,32.4151
 L -57.0301,32.3631 L -56.9701,32.3171 L -56.9041,32.2731 L -56.8361,32.2311 L -56.7661,32.1971 L -56.6941,32.1651
 L -56.6221,32.1391 L -56.5461,32.1171 L -56.4681,32.0991 L -56.3921,32.0871 L -56.3121,32.0811 L -56.2341,32.0791
 L -56.1561,32.0811 L -56.0781,32.0871 L -56.0001,32.0991 L -55.9221,32.1171 L -55.8481,32.1391 L -55.7721,32.1651
 L -55.7021,32.1971 L -55.6321,32.2311 L -55.5661,32.2731 L -55.5001,32.3171 L -55.4381,32.3631 L -55.3801,32.4151
 L -55.3221,32.4711 L -55.2701,32.5311 L -55.2241,32.5931 L -55.1781,32.6591 L -55.1381,32.7251 L -55.1021,32.7951
 L -55.0721,32.8671 L -55.0461,32.9411 L -55.0241,33.0171 L -55.0061,33.0931 L -54.9941,33.1711 L -54.9881,33.2491
 L -54.9841,33.3271 L -54.9881,33.4071 L -54.9941,33.4851 L -55.0061,33.5631 L -55.0241,33.6391 L -55.0461,33.7151
 L -55.0721,33.7871 L -55.1021,33.8591 L -55.1381,33.9311 L -55.1781,33.9971 L -55.2241,34.0631 L -55.2701,34.1251
 L -55.3221,34.1831 L -55.3801,34.2371 L -55.4381,34.2891 L -55.5001,34.3391 L -55.5661,34.3831 L -55.6321,34.4231
 L -55.7021,34.4591 L -55.7721,34.4891 L -55.8481,34.5171 L -55.9221,34.5391 L -56.0001,34.5551 L -56.0781,34.5671
 L -56.1561,34.5751 L -56.2341,34.5771 L -56.3121,34.5751 L -56.3921,34.5671 L -56.4681,34.5551 L -56.5461,34.5391
 L -56.6221,34.5171 L -56.6941,34.4891 L -56.7661,34.4591 L -56.8361,34.4231 L -56.9041,34.3831 L -56.9701,34.3391
 L -57.0301,34.2891 L -57.0901,34.2371 L -57.1441,34.1831 L -57.1961,34.1251 L -57.2441,34.0631 L -57.2901,33.9971
 L -57.3281,33.9311 L -57.3661,33.8591 L -57.3961,33.7871 L -57.4221,33.7151 z
M 4.88393,36.9351 L 4.70592,36.7331 L 4.51791,36.5451 L 4.31792,36.3691 L 4.30658,36.3601 L 4.13464,36.2271
 L 4.10593,36.2051 L 3.88591,36.0551 L 3.65591,35.9191 L 3.41791,35.7971 L 3.17392,35.6911 L 2.92192,35.6011
 L 2.66592,35.5271 L 2.64474,35.5222 L 2.4339,35.4752 L 2.40591,35.4691 L 2.14192,35.4251 L 1.87592,35.4011
 L 1.60992,35.3931 L 1.33992,35.4011 L 1.07591,35.4251 L 0.81192,35.4691 L 0.783936,35.4752 L 0.57309,35.5222
 L 0.55191,35.5271 L 0.295914,35.6011 L 0.0439148,35.6911 L -0.200073,35.7971 L -0.438065,35.9191 L -0.670074,36.0551
 L -0.89006,36.2051 L -0.918411,36.2271 L -1.08873,36.3601 L -1.10007,36.3691 L -1.30208,36.5451 L -1.49007,36.7331
 L -1.66608,36.9351 L -1.83006,37.1431 L -1.97807,37.3671 L -2.11407,37.5971 L -2.13371,37.6353 L -2.23267,37.8283
 L -2.23607,37.8351 L -2.34207,38.0791 L -2.43407,38.3291 L -2.50807,38.5851 L -2.56607,38.8471 L -2.60806,39.1111
 L -2.63206,39.3771 L -2.64008,39.6431 L -2.63206,39.9091 L -2.60806,40.1751 L -2.56607,40.4391 L -2.56607,40.4491
 L -8.35406,40.4491 L -10.4441,42.8431 L -13.5921,46.4491 L -53.6581,46.4491 L -56.0473,43.658 L -56.7211,42.8708
 L -58.4841,40.8071 L -58.4792,40.089 L -58.3871,39.0221 L -58.2203,37.0818 L -58.0421,37.1731 L -57.7981,37.2791
 L -57.5481,37.3691 L -57.3679,37.4226 L -57.3358,37.4322 L -57.2921,37.4451 L -57.0301,37.5031 L -56.7661,37.5451
 L -56.5001,37.5691 L -56.2341,37.5771 L -55.9681,37.5691 L -55.7021,37.5451 L -55.4381,37.5031 L -55.1781,37.4451
 L -54.9201,37.3691 L -54.6701,37.2791 L -54.4241,37.1731 L -54.1861,37.0511 L -53.9581,36.9171 L -53.7361,36.7651
 L -53.5241,36.6031 L -53.3261,36.4251 L -53.1361,36.2371 L -52.9601,36.0371 L -52.7961,35.8271 L -52.6461,35.6051
 L -52.5101,35.3751 L -52.3881,35.1371 L -52.2821,34.8911 L -52.1921,34.6411 L -52.1181,34.3851 L -52.0601,34.1231
 L -52.0181,33.8611 L -51.9921,33.5951 L -51.9841,33.3271 L -51.9921,33.0611 L -52.0181,32.7951 L -52.0601,32.5311
 L -52.1181,32.2711 L -52.1921,32.0131 L -52.2821,31.7631 L -52.3881,31.5171 L -52.5101,31.2791 L -52.6461,31.0511
 L -52.7961,30.8291 L -52.9601,30.6191 L -53.1361,30.4191 L -53.3261,30.2311 L -53.5241,30.0531 L -53.7361,29.8911
 L -53.9581,29.7391 L -54.1861,29.6031 L -54.4241,29.4811 L -54.6701,29.3751 L -54.9201,29.2871 L -55.1781,29.2111
 L -55.4381,29.1531 L -55.7021,29.1111 L -55.9681,29.0851 L -56.2341,29.0771 L -56.5001,29.0851 L -56.7661,29.1111
 L -57.0301,29.1531 L -57.2921,29.2111 L -57.5481,29.2871 L -57.5553,29.2897 L -57.3304,26.6607 L -57.2486,25.72
 L -57.2065,25.2271 L -57.1809,24.9286 L -57.0575,23.4835 L -56.7745,16.9775 L -56.7526,16.4746 L -56.6909,15.0511
 L -56.6909,-3.04886 L -56.7526,-4.47234 L -56.7745,-4.97522 L -57.0575,-11.4812 L -57.1661,-12.7529 L -57.1809,-12.9268
 L -57.2065,-13.2248 L -57.2486,-13.7177 L -57.3304,-14.6584 L -57.5553,-17.2875 L -57.5481,-17.2849 L -57.2921,-17.2089
 L -57.0301,-17.1509 L -56.7661,-17.1089 L -56.5001,-17.0849 L -56.2341,-17.0769 L -55.9681,-17.0849 L -55.7021,-17.1089
 L -55.4381,-17.1509 L -55.1781,-17.2089 L -54.9201,-17.2849 L -54.6701,-17.3749 L -54.4241,-17.4809 L -54.1861,-17.6029
 L -53.9581,-17.7369 L -53.7361,-17.8889 L -53.5241,-18.0509 L -53.3261,-18.2269 L -53.1361,-18.4169 L -52.9601,-18.6169
 L -52.7961,-18.8269 L -52.6461,-19.0489 L -52.5101,-19.2769 L -52.3881,-19.5149 L -52.2821,-19.7629 L -52.1921,-20.0129
 L -52.1181,-20.2689 L -52.0601,-20.5309 L -52.0181,-20.7929 L -51.9921,-21.0589 L -51.9841,-21.3269 L -51.9921,-21.5928
 L -52.0181,-21.8589 L -52.0601,-22.1228 L -52.1181,-22.3829 L -52.1921,-22.6409 L -52.2821,-22.8909 L -52.3881,-23.1349
 L -52.3915,-23.1416 L -52.4904,-23.3347 L -52.5101,-23.3728 L -52.6461,-23.6029 L -52.7961,-23.8229 L -52.9601,-24.0329
 L -53.1361,-24.2348 L -53.3261,-24.4229 L -53.5241,-24.6009 L -53.7361,-24.7628 L -53.9581,-24.9149 L -54.1861,-25.0508
 L -54.4241,-25.1729 L -54.6701,-25.2789 L -54.9201,-25.3669 L -55.1781,-25.4429 L -55.4381,-25.5009 L -55.7021,-25.5429
 L -55.9681,-25.5689 L -56.2341,-25.5769 L -56.5001,-25.5689 L -56.7661,-25.5429 L -57.0301,-25.5009 L -57.2921,-25.4429
 L -57.5481,-25.3669 L -57.7981,-25.2789 L -58.0421,-25.1729 L -58.2203,-25.0815 L -58.3871,-27.0219 L -58.4792,-28.0883
 L -58.4841,-28.8069 L -58.1932,-29.147 L -57.4739,-29.9879 L -56.6781,-30.9189 L -53.6581,-34.4469 L -13.4941,-34.4469
 L -13.4332,-34.5162 L -13.3261,-34.6387 L -11.0128,-37.2891 L -9.91649,-38.5438 L -8.25407,-40.4449 L -2.67807,-40.4449
 L -2.68007,-40.3649 L -2.67207,-40.0989 L -2.64807,-39.8329 L -2.60406,-39.5689 L -2.54607,-39.3089 L -2.47208,-39.0509
 L -2.38206,-38.8009 L -2.27608,-38.5569 L -2.27267,-38.55 L -2.17371,-38.357 L -2.15407,-38.3189 L -2.01807,-38.0889
 L -1.86807,-37.8689 L -1.70407,-37.6569 L -1.52806,-37.4569 L -1.33807,-37.2689 L -1.13808,-37.0909 L -1.12672,-37.0818
 L -0.954788,-36.9488 L -0.926071,-36.9269 L -0.70607,-36.7769 L -0.476074,-36.6409 L -0.238068,-36.5209 L 0.00592041,-36.4129
 L 0.25592,-36.3229 L 0.513916,-36.2489 L 0.534714,-36.2439 L 0.74556,-36.1969 L 0.773911,-36.1909 L 1.03792,-36.1489
 L 1.30391,-36.1249 L 1.56992,-36.1149 L 1.83591,-36.1249 L 2.10191,-36.1489 L 2.36592,-36.1909 L 2.39427,-36.1969
 L 2.60512,-36.2439 L 2.62592,-36.2489 L 2.88393,-36.3229 L 3.13393,-36.4129 L 3.37991,-36.5209 L 3.61792,-36.6409
 L 3.84592,-36.7769 L 4.06792,-36.9269 L 4.09663,-36.9488 L 4.26859,-37.0818 L 4.27992,-37.0909 L 4.47792,-37.2689
 L 4.66992,-37.4569 L 4.84392,-37.6569 L 5.00792,-37.8689 L 5.15791,-38.0889 L 5.29391,-38.3189 L 5.31355,-38.357
 L 5.41252,-38.55 L 5.41592,-38.5569 L 5.52193,-38.8009 L 5.61192,-39.0509 L 5.68591,-39.3089 L 5.74391,-39.5689
 L 5.78592,-39.8329 L 5.81192,-40.0989 L 5.81992,-40.3649 L 5.81792,-40.4449 L 9.38593,-40.4449 L 10.3901,-41.0047
 L 12.5674,-42.2188 L 14.4499,-43.2669 L 31.6179,-43.2669 L 33.1443,-41.9085 L 33.1992,-41.8593 L 34.487,-40.7124
 L 34.7879,-40.4449 L 71.5839,-40.4449 L 71.8933,-40.3582 L 73.9932,-39.7719 L 80.0039,-38.0869 L 85.0039,-32.0869
 L 85.5319,-27.6569 L 85.2939,-27.6169 L 85.2663,-27.6108 L 85.0555,-27.5638 L 85.0339,-27.5589 L 84.7799,-27.4849
 L 84.5259,-27.3949 L 84.2819,-27.2889 L 84.0439,-27.1669 L 83.8139,-27.0309 L 83.5939,-26.8808 L 83.5652,-26.8589
 L 83.3949,-26.7259 L 83.3839,-26.7168 L 83.1819,-26.5409 L 82.9939,-26.3529 L 82.8159,-26.1529 L 82.6539,-25.9429
 L 82.5039,-25.7209 L 82.3659,-25.4909 L 82.3463,-25.4523 L 82.2489,-25.2593 L 82.2459,-25.2529 L 82.1399,-25.0069
 L 82.0499,-24.7569 L 81.9759,-24.5009 L 81.9159,-24.2389 L 81.8759,-23.9749 L 81.8499,-23.7109 L 81.8399,-23.4429
 L 81.8499,-23.1768 L 81.8759,-22.9109 L 81.9159,-22.6469 L 81.9759,-22.3869 L 82.0499,-22.1289 L 82.1399,-21.8788
 L 82.2459,-21.6349 L 82.2489,-21.6281 L 82.3463,-21.4334 L 82.3659,-21.3949 L 82.5039,-21.1669 L 82.6539,-20.9449
 L 82.8159,-20.7328 L 82.9939,-20.5349 L 83.1819,-20.3469 L 83.3839,-20.1689 L 83.3949,-20.1598 L 83.5652,-20.0268
 L 83.5939,-20.0049 L 83.8139,-19.8549 L 84.0439,-19.7189 L 84.2819,-19.5969 L 84.5259,-19.4909 L 84.7799,-19.4009
 L 85.0339,-19.3269 L 85.0555,-19.3219 L 85.2663,-19.2749 L 85.2939,-19.2689 L 85.5579,-19.2269 L 85.8239,-19.2009
 L 86.0899,-19.1929 L 86.3599,-19.2009 L 86.3943,-19.2043 L 86.5381,-19.2253 L 87.0799,-14.7009 L 87.1799,-12.9869
 L 87.4179,-8.94885 L 87.4179,8.95114 L 87.1799,12.9871 L 87.0799,14.7011 L 86.9959,15.4029 L 86.9943,15.4169
 L 86.5382,19.2292 L 86.5043,19.2262 L 86.3599,19.2051 L 86.0899,19.1951 L 85.8239,19.2051 L 85.5579,19.2291
 L 85.2939,19.2691 L 85.0339,19.3271 L 84.7799,19.4031 L 84.5259,19.4951 L 84.2819,19.6011 L 84.0439,19.7211
 L 83.8139,19.8551 L 83.5939,20.0071 L 83.3839,20.1691 L 83.1819,20.3471 L 82.9939,20.5351 L 82.8159,20.7371
 L 82.6539,20.9471 L 82.5039,21.1671 L 82.3659,21.3991 L 82.3463,21.4377 L 82.2489,21.6291 L 82.2459,21.6351
 L 82.1399,21.8811 L 82.0499,22.1331 L 81.9759,22.3871 L 81.9159,22.6491 L 81.8759,22.9131 L 81.8499,23.1771
 L 81.8399,23.4451 L 81.8499,23.7131 L 81.8759,23.9791 L 81.9159,24.2431 L 81.9759,24.5031 L 82.0499,24.7591
 L 82.1399,25.0111 L 82.2459,25.2551 L 82.2489,25.2616 L 82.3463,25.4546 L 82.3659,25.4931 L 82.5039,25.7231
 L 82.6539,25.9431 L 82.8159,26.1551 L 82.9939,26.3551 L 83.1819,26.5431 L 83.3839,26.7211 L 83.3949,26.7298
 L 83.5652,26.8628 L 83.5939,26.8851 L 83.8139,27.0331 L 84.0439,27.1711 L 84.2819,27.2911 L 84.5259,27.3971
 L 84.7799,27.4891 L 85.0339,27.5611 L 85.2939,27.6211 L 85.5319,27.6571 L 85.0039,32.0891 L 84.9852,32.1595
 L 84.4203,34.2891 L 83.5819,37.4491 L 83.4954,37.5412 L 82.9606,38.1081 L 82.6562,38.4311 L 81.9989,39.1281
 L 81.9639,39.1631 L 81.968,39.1682 L 82.0316,39.2459 L 82.6559,40.006 L 82.7394,40.108 L 83.7919,41.3971
 L 83.8339,41.4291 L 83.8579,41.4491 L 90.7833,47.2608 L 91.2722,47.6711 L 91.7469,48.0696 L 93.3119,49.3831
 L 93.2473,49.871 L 92.9302,52.2617 L 92.6499,54.3751 L 92.5619,55.9351 L 91.6039,56.9991 L 72.7539,77.9591
 L 67.0803,78.7771 L 67.1179,78.5511 L 67.1419,78.2851 L 67.1499,78.0191 L 67.1419,77.7511 L 67.1179,77.4871
 L 67.0739,77.2231 L 67.0159,76.9611 L 66.9419,76.7051 L 66.8519,76.4551 L 66.7459,76.2091 L 66.6239,75.9731
 L 66.4879,75.7411 L 66.3379,75.5191 L 66.1739,75.3111 L 65.9979,75.1091 L 65.8079,74.9211 L 65.6079,74.7431
 L 65.4246,74.6031 L 65.3959,74.5811 L 65.1759,74.4291 L 64.9459,74.2951 L 64.7079,74.1731 L 64.4639,74.0671
 L 64.2139,73.9771 L 63.9559,73.9011 L 63.6959,73.8431 L 63.4319,73.8011 L 63.1659,73.7771 L 62.8999,73.7691
 L 62.6339,73.7771 L 62.3679,73.8011 L 62.1039,73.8431 L 61.8439,73.9011 L 61.5859,73.9771 L 61.3359,74.0671
 L 61.0899,74.1731 L 60.8519,74.2951 L 60.6239,74.4291 L 60.4019,74.5811 L 60.1899,74.7431 L 60.1759,74.7591
 L 56.8139,71.9391 L 56.7759,71.9071 L 56.7519,71.8871 L 55.3879,72.0531 L 54.3239,72.1851 L 47.2281,68.8765
 L 39.3079,65.1831 L 39.2779,65.2351 L 38.8659,65.9791 L 32.3313,64.8281 L 31.2469,64.6369 L 24.6439,63.4711
 L 14.9179,48.6871 L 14.9159,48.6871 L 10.3639,41.7691 L 9.97095,41.2376 L 9.94054,41.1959 L 9.83354,41.0515
 L 9.41113,40.4827 L 9.38593,40.4491 L 5.97617,40.4491 L 5.78229,40.4473 L 5.78392,40.4391 L 5.82391,40.1751
 L 5.84991,39.9091 L 5.85991,39.6431 L 5.84991,39.3771 L 5.82391,39.1111 L 5.78392,38.8471 L 5.72591,38.5851
 L 5.65192,38.3291 L 5.55992,38.0791 L 5.45392,37.8351 L 5.4509,37.8283 L 5.35356,37.6353 L 5.33391,37.5971
 L 5.19791,37.3671 L 5.04791,37.1431 z
M 61.6599,78.1751 L 61.6479,78.0191 L 61.6539,77.9391 L 61.6599,77.8611 L 61.6719,77.7831 L 61.6899,77.7071
 L 61.7119,77.6311 L 61.7379,77.5591 L 61.7679,77.4871 L 61.8039,77.4151 L 61.8439,77.3491 L 61.8899,77.2831
 L 61.9359,77.2211 L 61.9879,77.1631 L 62.0439,77.1091 L 62.1039,77.0571 L 62.1659,77.0071 L 62.2299,76.9631
 L 62.2979,76.9231 L 62.3679,76.8871 L 62.4379,76.8571 L 62.5139,76.8291 L 62.5879,76.8071 L 62.6119,76.8031
 L 62.6659,76.7911 L 62.7439,76.7791 L 62.8219,76.7711 L 62.8999,76.7691 L 62.9779,76.7711 L 63.0559,76.7791
 L 63.1339,76.7911 L 63.2119,76.8071 L 63.2859,76.8291 L 63.3599,76.8571 L 63.4319,76.8871 L 63.5019,76.9231
 L 63.5699,76.9631 L 63.6359,77.0071 L 63.6959,77.0571 L 63.7539,77.1091 L 63.8099,77.1631 L 63.8619,77.2211
 L 63.9099,77.2831 L 63.9559,77.3491 L 63.9939,77.4151 L 64.0319,77.4871 L 64.0619,77.5591 L 64.0879,77.6311
 L 64.1119,77.7071 L 64.1259,77.7831 L 64.1399,77.8611 L 64.1479,77.9391 L 64.1499,78.0191 L 64.1479,78.0431
 L 64.1479,78.0971 L 64.1399,78.1751 L 64.1259,78.2531 L 64.1119,78.3291 L 64.0879,78.4051 L 64.0619,78.4791
 L 64.0319,78.5511 L 63.9939,78.6211 L 63.9559,78.6891 L 63.9099,78.7531 L 63.8619,78.8151 L 63.8099,78.8751
 L 63.7539,78.9311 L 63.6959,78.9831 L 63.6359,79.0291 L 63.5699,79.0731 L 63.5019,79.1151 L 63.4319,79.1491
 L 63.3599,79.1811 L 63.2859,79.2071 L 63.2119,79.2291 L 63.1339,79.2471 L 63.0559,79.2591 L 62.9779,79.2651
 L 62.8999,79.2671 L 62.8219,79.2651 L 62.7439,79.2591 L 62.6659,79.2471 L 62.5879,79.2291 L 62.5139,79.2071
 L 62.4379,79.1811 L 62.3679,79.1491 L 62.2979,79.1151 L 62.2299,79.0731 L 62.1659,79.0291 L 62.1039,78.9831
 L 62.0439,78.9311 L 61.9879,78.8751 L 61.9359,78.8151 L 61.8899,78.7531 L 61.8439,78.6891 L 61.8039,78.6211
 L 61.7679,78.5511 L 61.7379,78.4791 L 61.7119,78.4051 L 61.6899,78.3291 L 61.6719,78.2531 z
" stroke="black" fill="lightgray" stroke-width="0.5"/>
</svg>
